<svg width="232" height="130" viewBox="0 0 232 130" fill="none" xmlns="http://www.w3.org/2000/svg">
<path d="M176.521 89.9016L176.015 89.5656L175.761 89.3976L175.504 89.2358C175.16 89.0214 174.817 88.8032 174.466 88.5995L173.938 88.2917L173.405 87.997C171.979 87.209 170.501 86.5055 168.987 85.8855C167.47 85.2655 165.917 84.732 164.339 84.2674C164.143 84.2072 163.944 84.1527 163.743 84.0994L163.141 83.9389C162.742 83.8329 162.355 83.742 161.963 83.643L160.748 83.3803L160.146 83.2493C159.944 83.206 159.743 83.1609 159.541 83.1277C156.307 82.5195 153.017 82.1722 149.723 82.065C146.426 81.9603 143.125 82.0769 139.852 82.3804C136.578 82.675 133.329 83.1371 130.11 83.6894C129.303 83.8248 128.505 83.979 127.702 84.1226L125.304 84.5859C123.711 84.9081 122.12 85.2373 120.538 85.5796L115.806 86.6209L111.101 87.6647L108.756 88.1763L106.413 88.6672C104.853 88.9882 103.295 89.3016 101.737 89.5813L100.569 89.7963L99.4021 89.9938C99.0147 90.0584 98.6203 90.1317 98.2385 90.1875L97.0875 90.3643L96.5113 90.4527L95.9132 90.5342L94.7164 90.7003L94.4168 90.7417L94.156 90.7731L93.5811 90.8426C93.1999 90.884 92.8181 90.9285 92.4401 90.9611C92.0595 91.0006 91.6852 91.0257 91.3078 91.0564C90.9342 91.0777 90.558 91.1047 90.1881 91.1172C89.8164 91.1367 89.4483 91.1398 89.0803 91.1473C88.8967 91.1498 88.7148 91.1461 88.5324 91.1461L88.2584 91.1442L87.9876 91.1348C87.2622 91.1179 86.5519 91.0608 85.8535 90.9749C85.6799 90.9517 85.505 90.9329 85.3319 90.9066L84.8172 90.822C84.6448 90.7975 84.4787 90.7549 84.3094 90.7223L84.0561 90.6715C84.0129 90.6633 83.974 90.6546 83.9376 90.6452L83.8254 90.6169L83.3715 90.5066L82.7916 90.3361L82.6487 90.2941C82.6631 90.2985 82.6706 90.3003 82.6424 90.2922L82.5835 90.2709L82.349 90.1862L81.8794 90.0195C81.7208 89.9706 81.5722 89.891 81.418 89.8283L80.9591 89.6283L80.8437 89.5788L80.5102 89.4038L80.0626 89.1744C78.884 88.5293 77.7818 87.7193 76.7975 86.7808C75.8145 85.841 74.9418 84.7796 74.224 83.6261L73.9651 83.1878L73.8353 82.969L73.7701 82.8593L73.7137 82.7459L73.4842 82.2932C73.4102 82.1415 73.3225 81.9954 73.2623 81.8381L73.0617 81.3735C72.9952 81.2193 72.9194 81.06 72.878 80.9221L72.7238 80.4971L72.6441 80.2845C72.6372 80.2657 72.6303 80.2538 72.6235 80.2275L72.6034 80.1548L72.562 80.0099L72.399 79.4263L72.3269 79.1705L72.3257 79.1661L72.3131 79.1046L72.288 78.9811L72.1846 78.489L72.1319 78.2432L72.0981 77.9925L72.0272 77.4922C72.016 77.4088 72.0009 77.3254 71.9921 77.242L71.9733 76.9881L71.9338 76.4816C71.9288 76.3969 71.9163 76.3123 71.9169 76.2283L71.915 75.9731C71.8793 74.6133 72.0285 73.2385 72.3351 71.8975C72.6423 70.5552 73.1212 69.25 73.7494 68.0256L73.9845 67.5654L74.2485 67.1234C74.3375 66.9767 74.4209 66.8256 74.513 66.6808L74.8033 66.2564L74.9481 66.0438L75.0202 65.9373L75.0559 65.884L75.0923 65.8388L75.3788 65.4708L75.5205 65.2859C75.5681 65.2232 75.6064 65.1655 75.6829 65.0853L76.0866 64.6358L76.2891 64.4101L76.3694 64.3204L76.3731 64.3166L76.4195 64.2721L76.7856 63.9123L76.9681 63.733C76.9988 63.7029 77.0283 63.6715 77.0596 63.6427L77.1574 63.5593L77.5486 63.2239C77.8013 62.9901 78.0865 62.7938 78.3605 62.5844C78.6288 62.3669 78.9297 62.1914 79.2162 61.9951C80.3823 61.2428 81.6556 60.6347 82.9878 60.1883C84.3188 59.7382 85.7112 59.4511 87.1162 59.3382C88.5211 59.2235 89.9392 59.2887 91.3222 59.5369L92.9955 59.8385L93.7886 58.421L94.4544 57.2305L95.1973 56.0788L96.0123 54.9716L96.8956 53.9115L97.8436 52.9015L98.851 51.9461L99.9162 51.0471L101.034 50.2095L102.199 49.4359L103.411 48.7287L104.662 48.0911L105.952 47.5275L107.273 47.0391L108.624 46.631C109.066 46.5275 109.508 46.4235 109.953 46.3112L110.696 46.1859L111.254 46.0906L111.347 46.0749L111.393 46.0674L111.417 46.063L111.428 46.0611C111.412 46.063 111.481 46.0542 111.395 46.0642L112.807 45.9131L114.232 45.8517C114.708 45.8611 115.185 45.873 115.664 45.878L117.098 45.9878L118.53 46.1846L119.952 46.4674L121.361 46.8285L122.753 47.2723L124.12 47.7983L125.462 48.4008L126.771 49.0829L128.045 49.8415L129.277 50.6753L130.463 51.5843L131.595 52.5642L132.678 53.6194L131.77 52.4088L130.77 51.2552L129.697 50.1675L128.551 49.1468L127.34 48.1977L126.068 47.3225L124.742 46.5219L123.364 45.8053L121.943 45.1665L120.481 44.6135L118.982 44.1515L117.455 43.7785L115.9 43.4982C115.378 43.4336 114.853 43.3766 114.327 43.317L112.739 43.238L111.143 43.26L109.594 43.3797C109.051 43.4543 108.507 43.5358 107.961 43.6186L106.391 43.9509L104.843 44.3809L103.322 44.9076L101.833 45.5238L100.381 46.231L98.972 47.0241L97.6097 47.9018L96.2994 48.861L95.0449 49.8985L93.8532 51.0145L92.7278 52.2038L91.6746 53.4651L90.7223 54.7666C89.449 54.566 88.1581 54.4858 86.8723 54.5215C85.0592 54.5754 83.2543 54.8588 81.5064 55.3578C79.7598 55.8613 78.0683 56.5797 76.4841 57.5095C76.0935 57.7489 75.6916 57.9746 75.3199 58.2473C74.9425 58.5132 74.5569 58.7658 74.2014 59.0636L73.6591 59.4968L73.5237 59.6059C73.4798 59.6429 73.4372 59.6836 73.3939 59.7219L73.1363 59.9557L72.6216 60.4266L72.5576 60.4861L72.5257 60.5149C72.5708 60.4654 72.4272 60.6146 72.4329 60.6096L72.3275 60.7181L72.1181 60.9362L71.6994 61.372C71.6342 61.4359 71.5495 61.5387 71.4699 61.6321L71.2298 61.9161L70.754 62.4879L70.6944 62.56L70.5395 62.7694L70.3345 63.0509L69.9251 63.6132C69.7947 63.8051 69.6738 64.0019 69.5484 64.1969L69.1766 64.7837L68.8387 65.3893C67.9453 67.0106 67.2651 68.7434 66.8037 70.5358C66.3404 72.3275 66.1103 74.1839 66.1178 76.0528L66.1159 76.4026C66.1147 76.5186 66.1266 76.6358 66.131 76.7524L66.1711 77.4546L66.1918 77.805C66.2024 77.9216 66.2187 78.0376 66.2319 78.1549L66.3197 78.8545L66.3654 79.2043L66.4313 79.551L66.5667 80.2457L66.6012 80.4187L66.6269 80.5491L66.6614 80.6845L66.7385 80.9773L66.8939 81.5622L66.9328 81.7077L66.9529 81.7816C66.9579 81.8042 66.9711 81.8393 66.9798 81.8675L67.099 82.2268L67.3416 82.9458C67.4212 83.1935 67.5134 83.401 67.6024 83.6198L67.8738 84.2699C67.9591 84.4887 68.0707 84.695 68.1729 84.9062L68.4857 85.5344L68.5647 85.6918L68.6519 85.8441L68.8268 86.1476L69.1791 86.7544C70.1552 88.3462 71.3288 89.812 72.6749 91.1041C74.0209 92.3962 75.5349 93.5177 77.1819 94.4262L77.8088 94.7509L78.1229 94.9114L78.2802 94.9917L78.442 95.0638L79.0915 95.3452C79.3097 95.4355 79.5216 95.5396 79.7472 95.6136L80.4168 95.8505L80.7522 95.9678L80.8362 95.9972C80.7936 95.9847 80.9422 96.0311 80.9397 96.0299L80.9754 96.0405L81.1208 96.0831L81.7014 96.2512L82.4211 96.4298L82.6017 96.4743C82.6631 96.4888 82.7227 96.5026 82.7778 96.5132L83.117 96.5822C83.3433 96.6254 83.5696 96.6781 83.796 96.7107L84.4743 96.8192C84.7006 96.8518 84.9257 96.8762 85.1514 96.9032C86.0529 97.006 86.9507 97.0687 87.8371 97.0818L88.17 97.0906H88.5004C88.7205 97.0894 88.9418 97.0906 89.1612 97.0862C89.5982 97.0743 90.0364 97.0649 90.4684 97.0386C90.9035 97.0217 91.331 96.9828 91.7611 96.9521C92.1868 96.9119 92.615 96.8768 93.0356 96.8273C93.4594 96.784 93.8776 96.7301 94.2964 96.6781L94.9202 96.5935L95.2587 96.5458L95.5571 96.5007L96.7514 96.3176L97.3495 96.2248L97.9664 96.1176L99.1996 95.9032C99.614 95.8342 100.011 95.7521 100.416 95.6769L101.628 95.4468L102.833 95.1979C104.439 94.8656 106.032 94.5045 107.62 94.1346L109.993 93.5604L112.354 92.9679C113.924 92.5661 115.488 92.1561 117.048 91.7467L121.713 90.516C123.266 90.106 124.815 89.7054 126.364 89.3148L128.687 88.7387C129.462 88.5569 130.238 88.3656 131.012 88.1914C134.112 87.4742 137.219 86.841 140.341 86.3388C140.731 86.2711 141.122 86.2165 141.512 86.1601L142.685 85.9908C143.076 85.9363 143.468 85.893 143.86 85.8429C144.251 85.7965 144.643 85.7426 145.034 85.7012L146.211 85.5858C146.604 85.5457 146.997 85.5031 147.39 85.4793C148.175 85.4241 148.963 85.3514 149.749 85.3257C152.897 85.1683 156.058 85.199 159.209 85.4843C159.407 85.4949 159.603 85.5194 159.799 85.5407L160.389 85.6059L161.56 85.7344C161.956 85.7915 162.364 85.8441 162.753 85.9043C163.139 85.9689 163.524 86.0228 163.914 86.0968C165.475 86.3664 167.025 86.7162 168.56 87.1375C171.63 87.9776 174.63 89.1386 177.514 90.6006C177.185 90.3668 176.857 90.1292 176.521 89.9016Z" fill="black"/>
<path d="M151.003 72.2981L150.892 71.2944L150.712 70.2975L150.469 69.3089C150.37 68.9841 150.265 68.6606 150.161 68.3353L149.791 67.3792C149.647 67.0695 149.506 66.7567 149.358 66.4457L148.86 65.5404L148.304 64.664C148.093 64.3743 147.879 64.0859 147.66 63.7982L147.347 63.4283L147.189 63.2433L147.111 63.1499L147.073 63.1035L147.052 63.0803L147.042 63.0691L147.037 63.0634C147.025 63.0484 147.062 63.0879 147.006 63.0296L146.273 62.2791C146.016 62.044 145.753 61.8127 145.49 61.5814L144.659 60.9375L143.79 60.3482C143.49 60.1695 143.188 59.989 142.883 59.8153L141.943 59.3438L140.976 58.9294L139.983 58.574C139.645 58.4749 139.307 58.3809 138.968 58.2843L137.936 58.058L136.89 57.8944L135.834 57.7941L134.772 57.7659L133.706 57.8066L132.711 57.9075L132.591 57.7051L131.834 56.6004L131.009 55.549L130.12 54.5541L129.172 53.6162L128.168 52.741C127.816 52.4702 127.467 52.1962 127.114 51.9298L126.011 51.1869L124.869 50.5098L123.689 49.901L122.472 49.3725L121.227 48.918L119.956 48.5393L118.663 48.2485L117.311 48.034L116.035 47.9174L114.714 47.888L113.398 47.9425C112.961 47.9864 112.527 48.0384 112.093 48.0867L110.804 48.3118C110.38 48.4121 109.956 48.5118 109.536 48.6183L108.294 49.0033C107.889 49.1569 107.484 49.3055 107.083 49.4622L105.907 49.9976C105.526 50.1969 105.145 50.3963 104.769 50.6001L103.676 51.2728C103.324 51.516 102.977 51.7636 102.631 52.0113L101.64 52.8106L100.707 53.6726L99.8397 54.5923L99.0397 55.5691C98.8003 55.9076 98.5614 56.2481 98.3263 56.5916C98.636 56.3152 98.9432 56.0343 99.2485 55.7534L100.2 54.976L101.189 54.2551L102.211 53.593L103.26 52.9893C103.621 52.8094 103.981 52.6313 104.337 52.4483L105.436 51.9693C105.812 51.8314 106.183 51.6903 106.554 51.5499L107.689 51.195C108.074 51.1022 108.456 50.9994 108.837 50.9022L109.995 50.6759C110.385 50.6251 110.772 50.5706 111.158 50.5142L112.324 50.4189C112.714 50.4107 113.102 50.4063 113.49 50.3938L114.649 50.4327L115.762 50.5418C115.767 50.543 115.772 50.5436 115.767 50.543L115.776 50.5449L115.796 50.5474L115.834 50.5537L115.91 50.5662L116.063 50.5907L116.369 50.6383L116.981 50.7323L118.063 50.9743L119.17 51.2928L120.258 51.669L121.321 52.1091L122.355 52.6119L123.363 53.1648L124.336 53.7761L125.272 54.4425C125.569 54.6833 125.87 54.919 126.169 55.1566L127.024 55.9202L127.836 56.7283L128.596 57.5822L129.306 58.4768L129.959 59.4116L130.554 60.3833L131.152 61.36L132.241 61.1475L133.091 60.9814L133.953 60.8717L134.824 60.8152H135.699L136.575 60.861L137.45 60.9601L138.318 61.113C138.603 61.1807 138.89 61.251 139.178 61.3149L140.028 61.5632L140.861 61.8622L141.677 62.212C141.94 62.3462 142.206 62.476 142.473 62.6058L143.245 63.0477L143.987 63.538C144.223 63.7179 144.46 63.8966 144.7 64.0734L145.38 64.6514L146.046 65.3041C146.236 65.5185 146.427 65.731 146.625 65.9435L147.192 66.6501L147.713 67.3949C147.87 67.655 148.034 67.9133 148.195 68.1723L148.631 68.981C148.76 69.26 148.887 69.5396 149.022 69.8186L149.366 70.68L149.66 71.5665L149.907 72.4699C149.971 72.7758 150.033 73.0836 150.1 73.3908L150.242 74.3281L150.329 75.2766L150.36 76.2339L150.334 77.1988L150.254 78.1693C150.353 77.8602 150.456 77.5499 150.553 77.2351C150.632 76.9179 150.706 76.5982 150.781 76.2753C150.837 75.9518 150.887 75.6252 150.939 75.2961C150.97 74.9675 151.003 74.6365 151.029 74.3036L151.05 73.3024C151.037 72.9695 151.019 72.6341 151.003 72.2981Z" fill="black"/>
<path d="M88.0798 100.766C88.0798 100.766 88.1744 100.781 88.3594 100.811C88.4509 100.827 88.5656 100.846 88.7017 100.868C88.8377 100.894 88.9957 100.916 89.1731 100.937C89.8803 101.037 90.9279 101.144 92.2495 101.151C92.5805 101.149 92.9278 101.151 93.2921 101.136C93.4751 101.128 93.6607 101.127 93.8506 101.116C94.0406 101.104 94.235 101.092 94.4331 101.08C95.2249 101.018 96.0781 100.941 96.9865 100.815C97.8943 100.683 98.8586 100.532 99.8723 100.334C100.126 100.284 100.382 100.233 100.642 100.182C100.707 100.169 100.772 100.157 100.838 100.144L100.985 100.116C100.971 100.116 100.996 100.112 101 100.111L101.024 100.106C101.158 100.079 101.292 100.05 101.426 100.022C101.965 99.9068 102.517 99.7908 103.08 99.6723C103.633 99.5425 104.197 99.4197 104.772 99.2918C105.346 99.1651 105.936 99.0178 106.533 98.8774C107.13 98.7326 107.736 98.5852 108.353 98.436C108.661 98.3602 108.971 98.2843 109.284 98.2072C109.596 98.1263 109.91 98.0467 110.227 97.9652C110.86 97.8022 111.502 97.6373 112.151 97.4693C112.801 97.3019 113.458 97.1307 114.122 96.9514C115.452 96.5935 116.811 96.2286 118.192 95.8587C120.958 95.1133 123.823 94.3384 126.76 93.5942C129.695 92.8488 132.7 92.1297 135.738 91.5034C138.777 90.8778 141.85 90.3493 144.906 89.9769C147.962 89.6032 151.001 89.3913 153.95 89.3694C156.899 89.3449 159.755 89.5236 162.44 89.864C162.775 89.9092 163.107 89.9562 163.439 90.0013C163.603 90.0245 163.768 90.0471 163.931 90.0703C164.095 90.0979 164.257 90.1248 164.42 90.1537C164.743 90.2095 165.065 90.2659 165.383 90.3204C165.701 90.3775 166.018 90.4251 166.328 90.4972C166.95 90.6339 167.56 90.768 168.159 90.8991L168.271 90.9235L168.298 90.9298C168.305 90.9304 168.344 90.9392 168.34 90.9392L168.394 90.953L168.611 91.0069C168.754 91.0426 168.898 91.0784 169.04 91.1147C169.321 91.1824 169.617 91.2658 169.903 91.3473C170.192 91.4276 170.476 91.5066 170.752 91.5931C171.028 91.6783 171.302 91.7573 171.57 91.8445C171.838 91.9329 172.103 92.02 172.365 92.1053C172.627 92.1905 172.882 92.2871 173.134 92.3774C174.143 92.7473 175.089 93.119 175.958 93.5146C177.703 94.2908 179.164 95.0794 180.327 95.7866C180.616 95.9665 180.889 96.1364 181.146 96.2963C181.401 96.4606 181.635 96.6217 181.854 96.7671C182.294 97.0568 182.653 97.3276 182.949 97.537C183.239 97.7527 183.457 97.9257 183.606 98.0392C183.754 98.1533 183.831 98.2122 183.831 98.2122C183.831 98.2122 183.478 98.0561 182.819 97.7608C182.653 97.6912 182.467 97.6129 182.263 97.5263C182.061 97.4392 181.84 97.3408 181.598 97.2467C181.357 97.1496 181.097 97.0449 180.821 96.9339C180.543 96.8286 180.248 96.7151 179.937 96.5953C178.687 96.1314 177.156 95.6186 175.38 95.1409C174.938 95.018 174.477 94.907 174.005 94.786C173.768 94.7277 173.527 94.6744 173.283 94.6186C173.16 94.5898 173.039 94.5628 172.915 94.534C172.79 94.5077 172.666 94.482 172.54 94.4569C172.289 94.4049 172.034 94.3522 171.776 94.2989C171.518 94.2494 171.256 94.1986 170.993 94.1478C170.729 94.0983 170.459 94.0557 170.189 94.0099C169.918 93.961 169.646 93.9215 169.372 93.8814C169.097 93.8419 168.826 93.7992 168.53 93.7604C168.385 93.7397 168.238 93.7196 168.092 93.7002L167.871 93.6701L167.815 93.6626C167.794 93.6588 167.814 93.6626 167.803 93.6613L167.666 93.6469C167.085 93.5855 166.492 93.5234 165.89 93.4588C165.287 93.4062 164.674 93.3635 164.053 93.3127C163.897 93.3008 163.741 93.2896 163.584 93.277C163.428 93.2701 163.269 93.2645 163.111 93.257C162.796 93.2432 162.477 93.2294 162.156 93.2156C159.592 93.1109 156.885 93.1554 154.091 93.3359C151.296 93.5171 148.414 93.8456 145.49 94.2814C142.566 94.7177 139.6 95.2669 136.634 95.88C133.668 96.4875 130.699 97.1521 127.765 97.8116C124.832 98.4711 121.931 99.1212 119.106 99.7087C116.282 100.299 113.531 100.818 110.906 101.245C110.577 101.299 110.251 101.351 109.927 101.402C109.603 101.45 109.281 101.499 108.96 101.546C108.32 101.639 107.693 101.738 107.068 101.81C106.444 101.885 105.838 101.969 105.231 102.033C104.626 102.099 104.033 102.167 103.451 102.223C102.877 102.27 102.315 102.315 101.765 102.361C101.628 102.373 101.492 102.383 101.356 102.395L101.294 102.4L101.243 102.404L101.139 102.411C101.071 102.415 101.003 102.42 100.934 102.425C100.662 102.445 100.393 102.458 100.125 102.47C99.0579 102.52 98.0417 102.549 97.085 102.529C96.1283 102.507 95.233 102.458 94.4086 102.372C93.5848 102.286 92.8319 102.172 92.1592 102.04C91.8225 101.973 91.5066 101.899 91.2094 101.834C90.9154 101.754 90.6401 101.68 90.3837 101.611C90.1305 101.534 89.8972 101.46 89.6828 101.394C89.4697 101.322 89.2778 101.248 89.1073 101.186C89.0214 101.156 88.9412 101.126 88.8659 101.099C88.7913 101.07 88.7236 101.038 88.6603 101.013C88.533 100.958 88.4265 100.913 88.3399 100.877C88.1682 100.803 88.0798 100.766 88.0798 100.766Z" fill="black"/>
<path d="M63.0296 13.316C63.4208 13.0621 63.9787 12.9643 64.3862 13.0765L82.2625 17.9954L89.0829 11.7938C89.4201 11.4709 89.8001 11.1982 90.1687 10.9349L90.2709 10.8615C91.0646 10.2923 91.9385 9.89294 92.7316 9.73809C93.6626 9.5569 94.4481 9.71489 95.0042 10.1945C95.0167 10.2058 95.0274 10.2183 95.0368 10.2315C95.4637 10.8296 95.5477 11.6258 95.2794 12.5354C95.0512 13.311 94.5729 14.1435 93.9315 14.8808L93.8481 14.9767C93.5516 15.3178 93.245 15.6713 92.8921 15.976L86.0799 22.1864L89.3111 40.4401C89.385 40.857 89.2339 41.403 88.9456 41.7679C88.9336 41.7842 88.9004 41.8249 87.7556 42.8782C87.5864 43.0349 87.397 43.1139 87.2071 43.107C87.0403 43.1001 86.8892 43.0261 86.7695 42.8957C86.6986 42.818 86.6416 42.7221 86.6002 42.6099C86.5996 42.6092 86.5983 42.6073 86.5977 42.6061L80.9253 26.5667L70.8561 35.1155L71.4975 40.4513C71.5389 40.7993 71.4442 41.2312 71.2511 41.5773C71.1721 41.7165 71.085 41.8318 70.9884 41.9227C70.8342 42.0663 70.6568 42.1384 70.4762 42.1309C70.3088 42.124 70.1502 42.0462 70.028 41.9127C69.9502 41.8281 69.8882 41.7228 69.8443 41.5999C69.8443 41.5999 67.692 35.7901 67.3742 35.4403C67.0582 35.093 61.4152 32.3451 61.4152 32.3451C61.2974 32.2894 61.1983 32.2185 61.1206 32.1332C60.9983 31.9991 60.9362 31.8342 60.945 31.6674C60.9551 31.4863 61.0435 31.317 61.2014 31.1759C61.2999 31.0894 61.4227 31.0123 61.5688 30.9477C61.9312 30.7866 62.37 30.7333 62.7136 30.8067L67.9673 31.9433L77.4201 22.7187L61.9763 15.5742C61.9744 15.5742 61.9726 15.5729 61.9719 15.5729C61.8641 15.5203 61.7738 15.4544 61.7036 15.3767C61.5851 15.2463 61.5256 15.0883 61.5343 14.9215C61.5444 14.7316 61.6409 14.551 61.8114 14.3981C62.9688 13.3555 63.0133 13.3266 63.0296 13.316Z" fill="black"/>
<path d="M66.0946 33.2956C63.2352 36.207 60.7118 39.4752 58.626 42.9829C56.5371 46.4912 54.8763 50.2484 53.6908 54.1428C52.5047 58.038 51.7944 62.0679 51.5624 66.1141C51.3286 70.1621 51.5774 74.2353 52.311 78.2138C53.0426 82.1923 54.2582 86.0761 55.9139 89.7518C57.5696 93.4281 59.6655 96.8982 62.1356 100.067C64.6063 103.237 67.4513 106.105 70.591 108.594C73.7306 111.084 77.1649 113.191 80.7967 114.855C84.4273 116.52 88.2553 117.742 92.1648 118.489C96.075 119.237 100.065 119.52 104.029 119.33C107.994 119.14 111.928 118.472 115.72 117.344C119.512 116.217 123.16 114.632 126.564 112.642C133.374 108.666 139.188 103.053 143.372 96.4292C145.468 93.1197 147.158 89.5618 148.397 85.8598C149.636 82.1584 150.422 78.3128 150.749 74.4353C150.316 78.3028 149.426 82.112 148.094 85.7545C146.763 89.3969 144.992 92.8714 142.836 96.0794C138.528 102.501 132.669 107.837 125.931 111.527C122.565 113.374 118.982 114.813 115.285 115.803C111.588 116.793 107.777 117.331 103.962 117.409C100.149 117.486 96.3295 117.109 92.6156 116.292C88.9017 115.476 85.2943 114.213 81.8957 112.541C78.4965 110.868 75.3067 108.785 72.4128 106.359C69.5183 103.933 66.9209 101.163 64.6897 98.1319C62.4578 95.1001 60.5921 91.8081 59.1476 88.3475C57.7007 84.8881 56.6756 81.26 56.1014 77.5687C54.9472 70.1872 55.6099 62.5418 57.9652 55.5058C59.1432 51.9868 60.7457 48.6177 62.7242 45.4944C64.7041 42.3666 67.0507 39.4928 69.7158 36.9249L66.0946 33.2956Z" fill="black"/>
</svg>
